<?xml version="1.0" encoding="UTF-8"?>
<svg width="512" height="512" viewBox="0 0 512 512" fill="none" xmlns="http://www.w3.org/2000/svg">
  <rect width="512" height="512" rx="128" fill="#3B82F6"/>
  <path d="M256 128C238.327 128 224 142.327 224 160V352C224 369.673 238.327 384 256 384C273.673 384 288 369.673 288 352V160C288 142.327 273.673 128 256 128Z" fill="white"/>
  <path d="M384 224C366.327 224 352 238.327 352 256V352C352 369.673 366.327 384 384 384C401.673 384 416 369.673 416 352V256C416 238.327 401.673 224 384 224Z" fill="white" fill-opacity="0.9"/>
  <path d="M128 288C110.327 288 96 302.327 96 320V352C96 369.673 110.327 384 128 384C145.673 384 160 369.673 160 352V320C160 302.327 145.673 288 128 288Z" fill="white" fill-opacity="0.8"/>
</svg> 