<svg xmlns="http://www.w3.org/2000/svg" width="512" height="512" fill="none"><rect width="512" height="512" fill="#3B82F6" rx="128"/><path fill="#fff" d="M256 128c-17.673 0-32 14.327-32 32v192c0 17.673 14.327 32 32 32s32-14.327 32-32V160c0-17.673-14.327-32-32-32"/><path fill="#fff" fill-opacity=".9" d="M384 224c-17.673 0-32 14.327-32 32v96c0 17.673 14.327 32 32 32s32-14.327 32-32v-96c0-17.673-14.327-32-32-32"/><path fill="#fff" fill-opacity=".8" d="M128 288c-17.673 0-32 14.327-32 32v32c0 17.673 14.327 32 32 32s32-14.327 32-32v-32c0-17.673-14.327-32-32-32"/></svg>